<?xml version="1.0" encoding="UTF-8" standalone="no"?>
<svg
   xmlns:dc="http://purl.org/dc/elements/1.1/"
   xmlns:cc="http://creativecommons.org/ns#"
   xmlns:rdf="http://www.w3.org/1999/02/22-rdf-syntax-ns#"
   xmlns:svg="http://www.w3.org/2000/svg"
   xmlns="http://www.w3.org/2000/svg"
   xmlns:xlink="http://www.w3.org/1999/xlink"
   xmlns:sodipodi="http://sodipodi.sourceforge.net/DTD/sodipodi-0.dtd"
   xmlns:inkscape="http://www.inkscape.org/namespaces/inkscape"
   version="1.0"
   width="300"
   height="300"
   viewBox="-18 -6 36 17"
   id="svg2566"
   sodipodi:version="0.32"
   inkscape:version="0.46"
   sodipodi:docname="Bronze_medal_world.svg"
   inkscape:output_extension="org.inkscape.output.svg.inkscape">
  <metadata
     id="metadata2573">
    <rdf:RDF>
      <cc:Work
         rdf:about="">
        <dc:format>image/svg+xml</dc:format>
        <dc:type
           rdf:resource="http://purl.org/dc/dcmitype/StillImage" />
      </cc:Work>
    </rdf:RDF>
  </metadata>
  <defs
     id="defs2571">
    <inkscape:perspective
       sodipodi:type="inkscape:persp3d"
       inkscape:vp_x="0 : 150 : 1"
       inkscape:vp_y="0 : 1000 : 0"
       inkscape:vp_z="300 : 150 : 1"
       inkscape:persp3d-origin="150 : 100 : 1"
       id="perspective2575" />
  </defs>
  <sodipodi:namedview
     inkscape:window-height="712"
     inkscape:window-width="1024"
     inkscape:pageshadow="2"
     inkscape:pageopacity="0.0"
     guidetolerance="10.0"
     gridtolerance="10.0"
     objecttolerance="10.0"
     borderopacity="1.0"
     bordercolor="#666666"
     pagecolor="#ffffff"
     id="base"
     showgrid="false"
     inkscape:zoom="1.54"
     inkscape:cx="132.56464"
     inkscape:cy="143.5914"
     inkscape:window-x="-4"
     inkscape:window-y="-4"
     inkscape:current-layer="svg2566" />
  <use
     transform="matrix(0.1032,0,0,0.1032,33.278814,-25.69161)"
     x="0"
     y="0"
     xlink:href="#g2853"
     id="use2856"
     width="36"
     height="17" />
  <use
     transform="matrix(0.1032,0,0,0.1032,5.3047883,-31.925376)"
     x="0"
     y="0"
     xlink:href="#g2853"
     id="use2859"
     width="36"
     height="17" />
  <use
     transform="matrix(0.1032,0,0,0.1032,14.655438,-18.366935)"
     x="0"
     y="0"
     xlink:href="#g2853"
     id="use2861"
     width="36"
     height="17" />
  <g
     id="g4996">
    <path
       id="path2568"
       style="fill:#cd7f32;stroke:#a05a2c;stroke-width:0.89197886"
       d="M 17.55401,2.5000003 C 17.55401,12.148425 9.6948119,19.970019 -1.40669e-07,19.970019 C -9.6948119,19.970019 -17.55401,12.148425 -17.55401,2.5000003 C -17.55401,-7.1484248 -9.6948119,-14.970019 1.071029e-07,-14.970019 C 9.6948119,-14.970019 17.55401,-7.1484248 17.55401,2.5000003 z" />
    <g
       id="g4992">
      <path
         sodipodi:type="arc"
         style="fill:#a05a2c;fill-opacity:1;fill-rule:evenodd;stroke:#ffffff;stroke-width:0;stroke-linecap:butt;stroke-linejoin:miter;stroke-miterlimit:4;stroke-opacity:1"
         id="path2739"
         sodipodi:cx="372.90503"
         sodipodi:cy="376.39664"
         sodipodi:rx="364.52515"
         sodipodi:ry="359.63687"
         d="M 737.43018,376.39664 A 364.52515,359.63687 0 1 1 8.3798828,376.39664 A 364.52515,359.63687 0 1 1 737.43018,376.39664 z"
         transform="matrix(3.2274355e-2,0,0,3.2713058e-2,-12.035255,-9.8131068)" />
      <path
         style="fill:#e2b36c;fill-opacity:1;fill-rule:evenodd;stroke:#784414;stroke-width:0.10081945000000000;stroke-opacity:0.94117647000000004"
         d="M -0.71315031,-8.9572489 C -1.3723104,-8.8643656 -2.0370835,-8.8029185 -2.6815974,-8.6262186 C -3.4418422,-8.4637403 -4.192511,-8.2342083 -4.8999596,-7.9071035 C -5.6951705,-7.515674 -6.4623009,-7.0611067 -7.1786985,-6.5344337 C -7.4121004,-6.4293831 -7.2140706,-6.3818216 -7.2405737,-6.2116752 C -7.3058852,-6.0629517 -7.4435396,-5.950978 -7.5605761,-5.8390201 C -7.6902334,-5.8277435 -7.8003144,-5.7506317 -7.8912639,-5.6878193 C -7.9352332,-5.5196912 -8.0302417,-5.2834912 -8.241766,-5.3215131 C -8.3560325,-5.4092358 -8.1956071,-5.5656574 -8.102205,-5.6149625 C -7.9318254,-5.6626887 -8.0111049,-5.8032184 -8.1096017,-5.7210016 C -8.2456587,-5.6010674 -8.3926917,-5.4558559 -8.4935822,-5.3215131 C -8.4042866,-5.2691079 -8.2542253,-5.3121566 -8.3011196,-5.0940887 C -8.2879694,-4.9413257 -8.3979718,-4.8084131 -8.4774393,-4.6886372 C -8.5896196,-4.7660582 -8.5152033,-4.9398337 -8.619489,-5.0281491 C -8.6099053,-5.2533511 -8.6068326,-5.2171197 -8.7598425,-5.056678 C -9.0327022,-4.7236181 -9.3097867,-4.3890826 -9.568637,-4.0425772 C -9.327861,-4.1608987 -9.1133543,-4.3202348 -8.8939018,-4.474383 C -8.8495056,-4.2699276 -8.7789654,-4.3310953 -8.655489,-4.4181205 C -8.5056651,-4.4838737 -8.3901048,-4.2848815 -8.309563,-4.187611 C -8.280142,-4.0747642 -8.5301154,-3.9907536 -8.3418468,-3.9469876 C -8.3382783,-4.1160073 -8.1937948,-4.2435372 -8.1320014,-4.3952731 C -8.0358202,-4.4828817 -7.7962542,-4.5833215 -7.9421225,-4.7350888 C -8.0985843,-4.8812479 -8.1130519,-4.9550134 -7.8804424,-4.9037025 C -7.7334224,-4.9141337 -7.5662671,-4.8459423 -7.5121505,-4.7051191 C -7.5926352,-4.5275771 -7.4001861,-4.3450731 -7.2286438,-4.3748548 C -7.0299913,-4.4582062 -6.9353742,-4.7061267 -6.7978527,-4.8716456 C -6.625322,-5.1370115 -6.3518936,-5.3363825 -6.1497664,-5.5621376 C -6.2921411,-5.5169057 -6.3690238,-5.710321 -6.2456963,-5.7861104 C -6.0426722,-5.9589326 -5.8058667,-6.0947855 -5.6558231,-6.3235657 C -6.0017864,-6.2157527 -6.3230413,-6.0576009 -6.6707192,-5.9565632 C -6.8525667,-5.9386654 -7.0115544,-5.8496906 -7.1731682,-5.7697992 C -7.2867801,-5.8687968 -7.2451098,-6.0271865 -7.1140977,-6.082643 C -6.7997144,-6.305587 -6.504391,-6.5520483 -6.2172991,-6.8099435 C -5.9010003,-7.0575559 -5.5756302,-7.3536411 -5.1683347,-7.3981347 C -5.0221758,-7.3186712 -4.8745673,-7.2418381 -4.7292736,-7.1608063 C -4.8385319,-6.949809 -4.5789008,-7.0692283 -4.461352,-7.042752 C -4.291617,-7.0535444 -4.1229816,-7.025136 -3.9544588,-7.0091802 C -3.8799055,-6.8457226 -4.0373075,-6.7691421 -4.1739625,-6.8110403 C -4.3443836,-6.7886417 -4.4620527,-6.6651709 -4.5484826,-6.521338 C -4.6935486,-6.3829467 -4.8327412,-6.5746787 -4.9907739,-6.551004 C -5.1338986,-6.374107 -5.2770243,-6.1972086 -5.4201498,-6.0203121 C -5.1328609,-6.0810366 -4.9182272,-6.3241481 -4.6324214,-6.3993776 C -4.6642637,-6.3282738 -4.8628007,-6.0944204 -4.7793183,-6.1475142 C -4.4544212,-6.3677332 -4.1499804,-6.6187517 -3.8091808,-6.814703 C -3.6542168,-6.9432559 -3.4992547,-7.0718084 -3.3442916,-7.2003608 C -3.537377,-7.27195 -3.733915,-7.115224 -3.925033,-7.0793129 C -4.0187307,-7.0465308 -4.1881364,-7.065116 -4.2224159,-7.144325 C -4.1812561,-7.3854469 -3.8965815,-7.4077026 -3.708957,-7.4731605 C -3.5713038,-7.5152369 -3.3849834,-7.5240718 -3.6316183,-7.5464647 C -3.7435955,-7.528544 -3.9678265,-7.5725938 -3.8285521,-7.7178681 C -3.7318329,-7.8368043 -3.6057356,-7.9033007 -3.4637413,-7.9486046 C -3.4038373,-7.7496475 -3.2098978,-7.8782433 -3.0641123,-7.8679361 C -2.8992277,-7.8666107 -2.7441904,-7.9161188 -2.6159963,-8.0162754 C -2.3409136,-8.0825202 -2.6070612,-8.0653415 -2.7090673,-8.1572751 C -2.8217689,-8.2995045 -2.5915884,-8.372823 -2.4780932,-8.3961262 C -2.018201,-8.5460023 -1.5428277,-8.6662614 -1.0623781,-8.7179389 C -0.5829181,-8.7594024 -0.10210621,-8.7808944 0.37804934,-8.8122139 C 0.60736283,-8.936204 0.47766623,-8.9604563 0.28472145,-8.9520931 C -0.048219297,-8.9827081 -0.37970079,-8.9674525 -0.71315031,-8.9572489 z M 2.5830402,-8.1958212 C 2.7076954,-8.0088163 2.9113245,-7.8334563 2.9026516,-7.5893153 C 2.7909624,-7.4645816 3.1066728,-7.5351621 3.1835238,-7.4541702 C 3.2589475,-7.3654278 3.3892148,-7.2727574 3.3836823,-7.1509177 C 3.3198902,-7.0323837 3.077589,-7.0723753 3.2642324,-6.9366634 C 3.3178334,-6.8094903 3.1952989,-6.6920683 3.1254109,-6.6070411 C 2.9373732,-6.5402466 2.7475678,-6.6878036 2.5614476,-6.5903941 C 2.353543,-6.5431086 2.464709,-6.5616472 2.5448025,-6.4379092 C 2.5677955,-6.3236828 2.5026659,-6.1876339 2.605641,-6.0697548 C 2.6642451,-5.8344985 2.7274489,-5.6002397 2.7832017,-5.3643638 C 2.6264791,-5.3329303 2.7991802,-5.0518067 2.5830402,-5.1336279 C 2.4319605,-5.3497934 2.4111987,-5.1669128 2.5253379,-5.0231005 C 2.6003571,-4.8507819 2.7327441,-4.7160758 2.8380845,-4.563381 C 2.6291117,-4.5537337 2.4191028,-4.5117694 2.2117771,-4.5600843 C 2.4007363,-4.5189539 2.2968459,-4.3250928 2.1846572,-4.254514 C 2.0285455,-4.1359215 1.857088,-3.9947608 1.6662299,-3.9486845 C 1.4479898,-4.0098548 1.5054866,-3.8933013 1.5917319,-3.761027 C 1.6632536,-3.5925432 1.4345841,-3.6157409 1.3336535,-3.6536229 C 0.90733427,-3.8179157 0.52508147,-4.120832 0.078485535,-4.2145757 C -0.21015557,-4.1477932 -0.53735427,-4.0956089 -0.73984196,-3.8569911 C -0.84746614,-3.606819 -1.0668291,-3.4223417 -1.2587346,-3.2404962 C -1.4778757,-3.0583371 -1.7674301,-2.9256854 -1.897974,-2.6614597 C -1.9126738,-2.526791 -1.9608342,-2.3392318 -1.8527714,-2.2395424 C -1.7201191,-2.2479356 -1.552382,-2.3515513 -1.4395431,-2.2790973 C -1.3972631,-2.1417882 -1.4329084,-1.9892893 -1.3233213,-1.8769577 C -1.2858886,-1.7020929 -1.4869553,-1.5509478 -1.6397026,-1.6429263 C -1.7324495,-1.7127696 -1.5148894,-1.8690956 -1.5670312,-1.9290681 C -1.700442,-1.8838995 -1.8276401,-1.8016501 -1.8240849,-1.6405665 C -1.8478033,-1.4697791 -1.9243406,-1.2783464 -2.1200047,-1.2708566 C -2.3855734,-1.2461599 -2.525978,-0.98995865 -2.7760874,-0.92105311 C -2.7298477,-0.79989827 -2.9461765,-0.77716424 -3.0214527,-0.7199835 C -3.1545582,-0.69496947 -3.2878703,-0.68083447 -3.4217736,-0.71009446 C -3.4537991,-0.54161447 -3.761642,-0.72405701 -3.6916699,-0.5332045 C -3.5882947,-0.31523217 -3.4649155,-0.063355747 -3.5901847,0.17429621 C -3.6435221,0.30736415 -3.7314421,0.42970527 -3.8897088,0.38860122 C -4.1311216,0.3570792 -4.3601342,0.23520588 -4.5969092,0.16999772 C -4.8048684,0.27253714 -4.7443345,0.5675589 -4.88326,0.73303711 C -4.9906398,0.87984747 -4.9970316,1.0669749 -5.0553414,1.2346759 C -4.9572465,1.3517378 -4.7173743,1.3938227 -4.7628789,1.5938305 C -4.7901032,1.7494633 -4.8596927,1.9081973 -5.0152923,1.969945 C -5.2045955,2.1009316 -5.4101611,2.2377738 -5.5476262,2.4217845 C -5.6223272,2.6030109 -5.7368547,2.7895728 -5.9366927,2.8300478 C -6.1468533,2.8969586 -6.3513172,2.974145 -6.5056957,3.141716 C -6.7475518,3.3705558 -6.9664368,3.6355042 -7.1340394,3.923651 C -7.2015927,4.1183729 -7.2033509,4.3218761 -7.1989951,4.5243173 C -7.3290023,4.8832552 -7.5379036,5.2567835 -7.4590419,5.6471653 C -7.2976075,5.9161933 -7.0572453,6.1654677 -7.0537183,6.4987542 C -6.7706956,6.8085957 -6.4876727,7.1184351 -6.2046498,7.4282663 C -5.7927875,7.4888127 -5.400205,7.656716 -4.9875495,7.6994243 C -4.6971899,7.7172242 -4.3975611,7.6747677 -4.1125534,7.7199384 C -3.8376459,7.7585692 -3.7834415,8.1349582 -3.5030804,8.1643805 C -3.3254824,8.2166523 -3.1433077,8.2521521 -2.9633413,8.2951679 C -3.0826461,8.4231101 -2.8142941,8.4197221 -2.8664865,8.5654849 C -2.9049357,8.7830181 -3.0072754,9.0090116 -3.0137744,9.2204199 C -2.8130238,9.58859 -2.44748,9.8401627 -2.3119722,10.248006 C -2.2156773,10.496695 -2.1291193,10.75943 -2.0400247,11.014558 C -2.182451,11.223676 -2.4476368,11.448467 -2.3287886,11.728468 C -2.0743346,12.077638 -1.8653226,12.465339 -1.5811232,12.789299 C -1.3820824,12.979763 -1.204146,13.20695 -0.99473977,13.377526 C -0.54669593,13.517979 -0.078423873,13.369823 0.3767614,13.345908 C 0.64808555,13.338841 0.89599363,13.200609 1.1302236,13.074051 C 1.3337887,12.957337 1.519042,12.814266 1.6726335,12.636319 C 1.817903,12.558918 2.0447366,12.507703 2.0164907,12.29349 C 2.0117095,12.151872 2.0183752,12.008935 2.147209,11.924301 C 2.4856245,11.708678 2.8184311,11.487532 3.1415544,11.248607 C 3.1455607,11.005145 3.1367629,10.764039 3.033859,10.539688 C 2.9464879,10.386871 3.0928667,10.223308 3.0088846,10.064826 C 3.0088702,9.9231686 3.0585919,9.7740807 3.0672989,9.6334356 C 3.5669737,9.0587334 4.0793576,8.4930704 4.5711851,7.9127345 C 4.7975388,7.5006528 5.0180937,7.0771128 5.1334692,6.617395 C 5.0383291,6.4842587 4.8619985,6.684799 4.7413278,6.7120325 C 4.4586135,6.850758 4.1828847,7.0014589 3.8711702,7.0524975 C 3.637224,6.753458 3.3664272,6.4892742 3.0931289,6.2284507 C 2.9965471,6.343012 2.7886166,6.2346736 2.8348585,6.086723 C 2.7344036,5.7934338 2.4390338,5.622515 2.3731933,5.312109 C 2.3332188,5.0958204 2.1281015,4.9967205 2.0524085,4.8014227 C 1.9113052,4.5614012 1.791878,4.292591 1.7049165,4.0364651 C 1.7278166,3.8544616 1.9125704,3.8857075 2.023885,3.9648629 C 2.2539529,4.2019185 2.4798061,4.4765285 2.6884404,4.7356658 C 2.8638969,5.1938263 3.2794761,5.4809813 3.5362779,5.8800526 C 3.6349227,6.0889408 3.7048262,6.3130406 3.8388871,6.5020287 C 4.1773739,6.4364988 4.4320632,6.1648888 4.7091439,5.9859121 C 5.030069,5.7692231 5.2609047,5.4499728 5.5660754,5.2132217 C 5.7287134,5.0521957 5.8841749,4.8860344 5.9565388,4.661433 C 6.0733261,4.4607503 6.0928247,4.2253294 6.1504165,4.0035072 C 6.0145919,3.9071731 5.8552665,3.8755278 5.6984366,3.8419878 C 5.5713922,3.8124737 5.5742509,3.4581788 5.4686473,3.6848772 C 5.3649726,3.8183055 5.306901,4.0094577 5.1199511,4.0389254 C 5.0310535,4.0926369 4.8061601,4.1889493 4.7971146,4.0204784 C 4.8009991,3.7925819 4.7459759,3.8635649 4.6048458,3.8951864 C 4.4970286,3.8266833 4.4583895,3.6570101 4.3373545,3.5829135 C 4.2281792,3.458542 3.9962259,3.3016801 4.1165251,3.1168231 C 4.2145186,3.0622767 4.2839691,2.8382966 4.3392843,2.863012 C 4.5072062,3.0794048 4.6843511,3.3162055 4.9740882,3.3520985 C 5.1900724,3.4360362 5.396977,3.3238217 5.5807184,3.2141644 C 5.6842043,3.1738205 5.946612,2.9713214 5.7904497,3.1930786 C 5.635918,3.3597177 5.8879541,3.3834475 6.0032873,3.3351984 C 6.3809962,3.2982033 6.7123518,3.0598371 7.0543659,2.9355306 C 7.3704035,3.1332773 7.6852667,3.3595598 8.0616237,3.4068863 C 8.3361306,3.4680684 8.374878,3.805292 8.5297492,4.0034246 C 8.7266868,4.3473685 8.9444409,4.6776251 9.1657368,5.0055513 C 9.3187731,5.0373194 9.278748,4.7886734 9.4304685,4.7748178 C 9.5203371,4.7959449 9.5695254,4.9924625 9.6112553,5.0912558 C 9.7300953,4.8924482 9.502724,4.7072486 9.4435739,4.5220304 C 9.3059144,4.247182 9.3069422,3.9234704 9.2496776,3.624436 C 9.4387689,3.0381238 9.5036105,2.4181601 9.6829473,1.8306993 C 9.7309756,1.6705504 9.8151104,1.5194687 9.9050409,1.3830084 C 10.093616,1.2936042 10.238903,1.5103077 10.359169,1.6254479 C 10.47127,1.705494 10.509191,1.9802939 10.550926,1.7063877 C 10.593161,1.63748 10.635081,1.2600766 10.679855,1.4489326 C 10.790109,1.7944813 10.887745,2.1447658 11.005923,2.4872422 C 10.945173,2.29138 10.949038,2.0814939 10.980093,1.8840331 C 11.025191,1.6731862 11.278716,1.9759585 11.242401,1.7985463 C 11.225715,1.4472917 11.184442,1.0909225 11.090996,0.75504451 C 10.912026,0.50475179 10.701446,0.24801496 10.708077,-0.080352477 C 10.694555,-0.2639106 10.678172,-0.44725944 10.666941,-0.6309865 C 10.804639,-0.36803507 10.735075,-0.60915082 10.698081,-0.76239157 C 10.614707,-1.1251666 10.529864,-1.4876112 10.44741,-1.8505876 C 10.612738,-1.9187994 10.438047,-2.0620262 10.392526,-2.1571368 C 10.140394,-2.542699 9.9024083,-2.9479636 9.6049116,-3.295571 C 9.4562241,-3.4100998 9.2770751,-3.4916635 9.2165556,-3.6872275 C 9.1457108,-3.8191593 8.9444264,-3.7549722 8.8784001,-3.9059919 C 8.7897978,-4.0185576 8.6198397,-4.1431261 8.6899414,-4.3039914 C 8.7368438,-4.4300423 8.5265635,-4.7161508 8.7546406,-4.5363208 C 8.9116068,-4.4519806 9.0495037,-4.3500297 9.1851074,-4.2337581 C 9.1407366,-4.4215012 8.9131104,-4.4941676 8.7812105,-4.619977 C 8.2644767,-5.0239234 7.9048185,-5.5926799 7.4031953,-6.0176494 C 7.2690684,-6.1593545 7.1136584,-6.2838915 6.9647625,-6.4008071 C 6.9270594,-6.5587654 6.8242949,-6.6054648 6.6606641,-6.6534091 C 6.5325496,-6.7060807 6.3914153,-6.7350418 6.3152919,-6.8542503 C 6.1138321,-6.9631608 6.1660864,-6.9046855 6.2450509,-6.7459495 C 6.2082394,-6.5566178 6.0138953,-6.7047744 5.8986013,-6.7355935 C 5.3680944,-7.083178 4.8746343,-7.505735 4.3460955,-7.8540528 C 4.147353,-7.8697405 3.9668304,-7.9728683 3.7904605,-8.0540838 C 3.8018817,-8.223221 3.7024051,-8.2191332 3.5221147,-8.2628225 C 3.035665,-8.385595 2.5515693,-8.5334256 2.0633064,-8.6393888 C 1.8204768,-8.6035537 1.5807628,-8.6694836 1.3497929,-8.7396982 C 1.7608777,-8.5584045 2.1719605,-8.3771121 2.5830402,-8.1958212 z M -2.8019174,-8.5221469 C -2.6546767,-8.4842137 -2.7015956,-8.279068 -2.8342025,-8.2749305 C -2.9649721,-8.2372525 -3.0653913,-8.4014535 -2.9461867,-8.4836274 C -2.9154518,-8.5388495 -2.8525906,-8.5155242 -2.8019174,-8.5221469 z M -3.0666496,-8.2024144 C -2.9913287,-8.0920332 -3.0973887,-7.9335282 -3.2183855,-7.9683817 C -3.3579743,-8.0345046 -3.3019583,-8.2375016 -3.147444,-8.1994976 C -3.1205108,-8.2003511 -3.0936151,-8.2029988 -3.0666496,-8.2024144 z M -3.0989337,-7.5728344 C -3.3668922,-7.5261862 -3.1726254,-7.5241452 -3.011767,-7.5069098 C -2.8395905,-7.5075736 -2.8209258,-7.3271619 -2.9181453,-7.2267303 C -2.876499,-7.0860025 -2.6539955,-7.1685978 -2.5386159,-7.119566 C -2.3653802,-7.1069819 -2.1697667,-7.0590641 -2.0529299,-6.9300711 C -2.013686,-6.7679696 -2.1836099,-6.7093565 -2.306259,-6.7689528 C -2.4669342,-6.827185 -2.6429728,-6.8221789 -2.7786396,-6.7043214 C -2.9169647,-6.651526 -2.8894764,-6.4537845 -3.0297429,-6.3929845 C -3.2536329,-6.2226429 -3.4998417,-6.0611911 -3.741905,-5.9276473 C -3.9146047,-5.9055994 -3.9652043,-5.8270842 -4.0301944,-5.6928065 C -4.2225893,-5.6322144 -4.4567874,-5.6798445 -4.6123515,-5.5139403 C -4.9073525,-5.3167982 -5.1290442,-5.03459 -5.3781809,-4.7842285 C -5.4856919,-4.5762532 -5.3838364,-4.5286471 -5.2111569,-4.6452021 C -4.9625848,-4.7367159 -4.7194083,-4.8628438 -4.467798,-4.9347042 C -3.9842148,-4.9269783 -3.4852696,-4.844395 -3.0127572,-4.9667773 C -2.7367218,-5.1396254 -2.4913833,-5.360788 -2.1820712,-5.4698425 C -2.0932026,-5.5852434 -1.9976446,-5.6962025 -1.8717932,-5.7637225 C -1.7830588,-5.8916086 -1.6816895,-6.0078817 -1.5203105,-6.0256462 C -1.3790772,-6.0465527 -1.2726078,-6.1498356 -1.3685095,-6.2840104 C -1.2536975,-6.4426931 -1.4022827,-6.5213563 -1.5347637,-6.5839809 C -1.6255188,-6.6816794 -1.9169669,-6.7020139 -1.8242851,-6.8697133 C -1.7453278,-6.9659387 -1.5379226,-7.049215 -1.7107125,-7.1862785 C -1.8424617,-7.2980463 -2.0223651,-7.3252808 -2.1820712,-7.3816534 C -2.2727913,-7.2710717 -2.43958,-7.1374519 -2.5694737,-7.2629887 C -2.6836139,-7.3839106 -2.5123639,-7.4966257 -2.4661664,-7.5695379 C -2.5828701,-7.4832146 -2.7435165,-7.414429 -2.860245,-7.5430492 C -2.928953,-7.6009389 -3.0175554,-7.6107982 -3.0989337,-7.5728344 z M -7.6832534,-6.119199 C -7.8055157,-6.0450615 -7.9548792,-5.8545526 -7.7381367,-6.0071273 C -7.6706433,-6.0855936 -7.4850827,-6.2995826 -7.6710986,-6.1291283 L -7.6832534,-6.119199 z M -0.45811112,-5.5687299 C -0.56450825,-5.3944104 -0.33574481,-5.3711718 -0.28358341,-5.5447452 C -0.12376479,-5.6988666 -0.40066277,-5.5644616 -0.45811112,-5.5687299 z M 1.6112966,-5.3478825 C 1.547196,-5.1483926 1.636047,-4.9436299 1.6758637,-4.747969 C 1.865892,-4.5888305 1.7722132,-4.7041463 1.6880732,-4.8488677 C 1.6342328,-5.0315392 1.6977998,-5.23173 1.6661763,-5.4203996 C 1.647882,-5.3962272 1.6295888,-5.3720551 1.6112966,-5.3478825 z M -3.5735086,-4.2238696 C -3.6369587,-4.1105714 -3.7554662,-3.8595316 -3.5219446,-3.8964483 C -3.4131852,-3.8879685 -3.1759753,-3.8924471 -3.1828722,-4.0227999 C -3.2998875,-4.111151 -3.50166,-4.0564248 -3.5541382,-4.227166 L -3.5735086,-4.2238696 z M -7.7736498,-3.9338017 C -7.8615835,-3.8456611 -7.782913,-3.6958469 -7.8317596,-3.5778096 C -7.717379,-3.6772824 -7.6490184,-3.8407324 -7.6219153,-3.9964302 C -7.6724931,-3.9755543 -7.723071,-3.9546782 -7.7736498,-3.9338017 z M 1.0301825,-3.6272532 C 1.1502526,-3.6042092 1.3630159,-3.5542145 1.293101,-3.3847739 C 1.274202,-3.2341769 1.0709228,-3.3103045 1.1000118,-3.1733608 C 1.0297997,-3.0172728 0.85745978,-3.1720333 0.75254356,-3.2053365 C 0.86723591,-3.3318516 0.72264652,-3.4402479 0.77513817,-3.5613285 C 0.84422335,-3.632167 0.94159461,-3.6109435 1.0301825,-3.6272532 z M -0.083613801,-3.4459612 C 0.066422487,-3.4078576 0.048303663,-3.231852 -0.050582577,-3.1463749 C -0.1023962,-2.9962844 -0.38164817,-3.0234019 -0.32842071,-2.8362298 C -0.30710785,-2.6712163 -0.3169975,-2.4132208 -0.52432424,-2.391754 C -0.69934525,-2.3408258 -0.88480184,-2.5525102 -0.77720242,-2.7169468 C -0.70584065,-2.8788592 -0.58600894,-2.998782 -0.44842373,-3.1031535 C -0.39982685,-3.2567518 -0.31721732,-3.3756562 -0.16267222,-3.4289882 C -0.14061425,-3.449404 -0.11076469,-3.4437614 -0.083613801,-3.4459612 z M 0.59111915,-2.7537538 C 0.69393525,-2.7294452 0.81879693,-2.6341585 0.85262383,-2.529611 C 0.8577766,-2.376441 0.6584489,-2.3228467 0.56529335,-2.43402 C 0.46440297,-2.5269993 0.48750635,-2.6494712 0.57175367,-2.7438651 L 0.57820883,-2.7537538 L 0.59111915,-2.7537538 z M 0.45230071,-2.5724613 C 0.43869585,-2.4149903 0.38162212,-2.2674533 0.24568605,-2.1802106 C 0.073635135,-2.2271676 0.17956684,-2.4115672 0.27186479,-2.485289 C 0.30116121,-2.526918 0.45324189,-2.672244 0.45230071,-2.5724613 z M -3.0698778,-2.4274274 C -3.3025255,-2.449876 -3.214376,-2.3039222 -3.2820882,-2.177959 C -3.3862364,-1.985001 -3.6069688,-1.9405116 -3.7891862,-1.8631005 C -3.906779,-1.7939179 -3.968478,-1.6506394 -4.0307463,-1.5381638 C -3.9315015,-1.4572322 -3.7405875,-1.5445215 -3.6596321,-1.6330469 C -3.5896319,-1.7593226 -3.4432615,-1.9459001 -3.2941044,-1.8129949 C -3.1142331,-1.7773796 -3.1743502,-1.5672312 -3.2990947,-1.4978916 C -3.4459826,-1.4277657 -3.4997378,-1.2737733 -3.5486337,-1.1295421 C -3.6830627,-0.99386795 -3.353782,-1.0647928 -3.2697302,-1.0176804 C -3.137188,-1.0121814 -2.9129183,-0.91341611 -2.8987726,-1.1254195 C -2.9151752,-1.424616 -2.9874975,-1.7230346 -3.0077315,-2.0176308 C -2.9109358,-2.1547249 -3.0313763,-2.3077644 -2.9744278,-2.4425598 C -2.9314191,-2.4894607 -3.0641767,-2.4210987 -3.0698778,-2.4274274 z M -0.29023155,-2.4043543 C -0.2003815,-2.3874428 0.040816503,-2.3869532 -0.010519305,-2.2602836 C -0.16848961,-2.1145867 -0.10443233,-2.1491278 0.0035262153,-2.0142936 C 0.092196687,-1.8884276 -0.069792225,-1.665283 -0.19983764,-1.7879594 C -0.30016249,-2.0234395 -0.31974159,-1.7727884 -0.36232604,-1.6435186 C -0.43110884,-1.5130731 -0.47278616,-1.2920469 -0.65822417,-1.3115552 C -0.84918545,-1.3522236 -1.0265243,-1.2486552 -1.2167818,-1.2572672 C -1.3261934,-1.3209736 -1.5669115,-1.4212799 -1.4266214,-1.5770014 C -1.2705211,-1.5600911 -1.200407,-1.6879332 -1.0874908,-1.7604743 C -0.88844273,-1.8284575 -0.97305951,-2.1244466 -0.7906339,-2.2197652 C -0.6529393,-2.3273323 -0.50462129,-2.3998918 -0.32819161,-2.3991647 C -0.31529264,-2.3974803 -0.30305002,-2.4050007 -0.29023155,-2.4043543 z M 1.4466461,-2.3384292 C 1.5762746,-2.3034034 1.5809217,-2.1136498 1.4660157,-2.0681388 C 1.33754,-2.0403833 1.2177908,-2.1920105 1.3291323,-2.291623 C 1.348603,-2.3400343 1.4057284,-2.3295658 1.4466461,-2.3384292 z M 3.4385661,-0.077221077 C 3.6630674,0.078534867 3.8967875,0.23255209 4.1100709,0.40073022 C 4.2445622,0.71790592 4.4058803,1.0299416 4.5249669,1.3499927 C 4.5730664,1.550309 4.3376971,1.6142641 4.1878569,1.6185387 C 4.0453026,1.6003001 3.8894108,1.5262913 3.774319,1.4555239 C 3.7638989,1.2910572 3.697564,1.0977141 3.8162874,0.95778927 C 3.6237657,0.80363107 3.4128972,0.65579603 3.2689806,0.45482219 C 3.2084074,0.296014 3.1254005,0.075834019 3.2771479,-0.054145757 C 3.330977,-0.061226627 3.3845636,-0.072607107 3.4385661,-0.077221077 z M 1.8340558,0.044740375 C 1.9532178,0.12731008 1.9363848,0.33014637 1.8017687,0.37765831 C 2.1011612,0.48291395 2.3842532,0.65215617 2.6346959,0.85561198 C 2.6321076,1.0239941 2.5087403,1.1383439 2.3548939,1.1707064 C 2.0522423,1.2505698 1.7285318,1.1506206 1.4175902,1.1654545 C 1.1890207,1.2196965 0.95417056,1.3200182 0.72025847,1.3137891 C 0.80579476,1.4552453 0.61367558,1.5608045 0.50395747,1.4720029 C 0.38520523,1.357453 0.68908485,1.2541488 0.51041263,1.1654545 C 0.41645522,0.97403398 0.58421817,0.79817385 0.63181504,0.61781121 C 0.7379098,0.44388763 0.78442823,0.14078377 1.0398668,0.16010869 C 1.1507243,0.24962725 1.2568438,0.34125926 1.3497929,0.45017158 C 1.4527308,0.39657487 1.7444989,0.43002622 1.5448812,0.31054601 C 1.41768,0.12445257 1.6872992,0.017663172 1.8340558,0.044740375 z M -1.6397026,0.27547617 C -1.409644,0.51822569 -1.2157168,0.82279118 -0.91552035,0.98386894 C -0.67290231,1.1333583 -0.75919402,1.4743899 -0.6115819,1.6919242 C -0.53631298,1.8643219 -0.47699569,2.0571727 -0.31605838,2.16751 C -0.23005253,2.0862958 -0.1946828,1.9454422 -0.052137801,1.9555765 C -0.051211065,1.8390234 -0.26107652,1.8037641 -0.30960219,1.6829654 C -0.36015471,1.5270199 -0.19230197,1.4619358 -0.080231937,1.417084 C 0.015388023,1.3753448 0.17230259,1.2214519 0.22952287,1.3810899 C 0.32438224,1.6211661 0.38532081,1.873937 0.51622795,2.1023846 C 0.55374734,2.3106226 0.70845652,2.0347752 0.83970731,2.1741066 C 0.98415945,2.2059345 1.1006145,2.0501386 1.2488716,2.1313426 C 1.4252218,2.2105413 1.6160943,2.0771904 1.7856272,2.0818066 C 1.965191,2.1564491 1.9825008,2.3657108 1.9448957,2.5358515 C 1.9210101,2.7977927 1.8505843,3.0689084 1.7275163,3.2915201 C 1.4957064,3.3816601 1.2415619,3.286873 1.0111958,3.3850224 C 0.67056664,3.4793162 0.32296737,3.3438775 -0.0024397767,3.2521596 C -0.19666321,3.1863139 -0.40704053,3.0376377 -0.60614842,3.1613209 C -0.77579787,3.2138342 -0.66780733,3.5135817 -0.87456956,3.5123722 C -1.0739705,3.5440732 -1.2506592,3.4197615 -1.4162963,3.325799 C -1.7081665,3.0567215 -2.1166146,2.9651026 -2.4080534,2.7014999 C -2.4788352,2.5645029 -2.3333377,2.4929739 -2.2804281,2.4047926 C -2.3293511,2.2929331 -2.3118122,2.1487617 -2.3412696,2.057698 C -2.6251264,1.9846283 -2.9390855,1.9966304 -3.2345265,1.9565486 C -3.5785176,1.9436331 -3.9210367,1.9567663 -4.2611563,2.0125883 C -4.4314983,2.0031826 -4.6138897,1.951272 -4.7357303,1.8378872 C -4.8033893,1.6539456 -4.6029974,1.5074821 -4.4387188,1.5577054 C -4.1828457,1.6087016 -3.92685,1.4615983 -3.819482,1.2236129 C -3.6776724,0.92949699 -3.2850691,0.91470843 -3.1505881,0.61498559 C -2.990393,0.43384565 -2.7410232,0.65185689 -2.5477924,0.54236912 C -2.3999357,0.51975718 -2.1816688,0.40702686 -2.0926629,0.5854157 C -2.0160668,0.75570499 -1.9602139,0.93685618 -1.7999846,1.0483277 C -1.6103845,1.2388525 -1.3351739,1.3905771 -1.2910373,1.6829654 C -1.2718885,1.7775864 -1.2516603,1.4519749 -1.2772301,1.3699319 C -1.0699003,1.4320501 -1.1295953,1.3744769 -1.2875223,1.2512282 C -1.5076469,1.0951124 -1.6449947,0.85087716 -1.7882074,0.62817249 C -1.8337568,0.48852566 -1.7723848,0.34295091 -1.6590671,0.25899616 L -1.6397026,0.27547617 z M -2.3757673,1.330266 C -2.4048718,1.5598942 -2.2995655,1.1566526 -2.3757673,1.330266 z M -1.6945802,1.9202924 C -1.9038172,1.8599895 -1.5812862,2.1279463 -1.5363251,1.980943 C -1.3366703,1.8087951 -1.5967281,1.9303967 -1.6945802,1.9202924 z M 11.280339,3.2783342 C 11.329457,3.4261114 11.335537,3.5786462 11.325534,3.7332088 C 11.210396,3.7317506 10.972346,3.7201747 11.080177,3.8947313 C 11.11556,4.0089427 11.294066,4.0015216 11.283689,4.1591751 C 11.331502,4.360123 11.326318,3.9725812 11.34038,3.8955466 C 11.354541,3.6233886 11.343823,3.3375535 11.264341,3.0774203 C 11.187051,2.9312726 11.073354,2.7345631 11.186343,3.0104187 C 11.217673,3.0997239 11.249001,3.189029 11.280339,3.2783342 z M -11.615437,3.5321443 C -11.521817,4.3492086 -11.386849,5.1641976 -11.135077,5.947499 C -10.907237,6.6925855 -10.606164,7.4158977 -10.240143,8.1006927 C -10.258505,7.9499309 -10.391004,7.7811133 -10.247526,7.6570483 C -10.108383,7.5017426 -10.071568,7.2799163 -10.173531,7.0923492 C -10.359624,6.5848426 -10.67226,6.1367822 -10.900716,5.648091 C -11.135134,5.2188255 -11.294355,4.7475637 -11.374502,4.260694 C -11.467367,3.7947284 -11.569551,3.3306494 -11.65418,2.863012 C -11.641264,3.086054 -11.628353,3.3091022 -11.615437,3.5321443 z M 1.9825586,9.1126285 C 2.0727296,9.2554831 2.0352473,9.3749506 1.9179915,9.4818142 C 1.8040184,9.5782009 1.6272853,9.7128986 1.4982998,9.560917 C 1.4510208,9.4083027 1.537683,9.2251681 1.6990589,9.1855001 C 1.7751245,9.1400519 1.911558,9.0730245 1.9825586,9.1126285 z M 1.0624687,10.183931 C 1.1774407,10.2089 1.3758138,10.263501 1.3055408,10.422992 C 1.2313833,10.535665 1.0446605,10.40357 0.98821521,10.295982 C 0.99238139,10.249138 1.0100771,10.185503 1.0624687,10.183931 z M 4.7396075,10.767328 C 4.5284427,11.011831 4.2775439,11.222741 3.9680223,11.324386 C 3.7893945,11.509958 3.8909505,11.809098 3.7097499,11.993551 C 3.5929058,12.161942 3.6891605,12.294508 3.8666737,12.169504 C 4.1416192,12.069165 4.2710702,11.766713 4.4433141,11.546142 C 4.5733863,11.2917 4.7655654,11.061953 4.8577715,10.792591 C 4.8490583,10.685868 4.7916719,10.660886 4.7396075,10.767328 z M 2.1052386,10.810185 C 2.2185821,10.966698 2.1374391,11.160929 2.1052386,11.330986 C 1.9724316,11.251111 1.8812709,11.152218 1.9147634,10.984874 C 1.9030863,10.851527 2.0026764,10.76591 2.1052386,10.810185 z"
         id="path2729" />
    </g>
  </g>
</svg>
