<?xml version="1.0" encoding="UTF-8" standalone="no"?>
<svg
   xmlns:dc="http://purl.org/dc/elements/1.1/"
   xmlns:cc="http://creativecommons.org/ns#"
   xmlns:rdf="http://www.w3.org/1999/02/22-rdf-syntax-ns#"
   xmlns:svg="http://www.w3.org/2000/svg"
   xmlns="http://www.w3.org/2000/svg"
   xmlns:sodipodi="http://sodipodi.sourceforge.net/DTD/sodipodi-0.dtd"
   xmlns:inkscape="http://www.inkscape.org/namespaces/inkscape"
   version="1.0"
   width="300"
   height="300"
   viewBox="-18 -6 36 17"
   id="svg7227"
   sodipodi:version="0.32"
   inkscape:version="0.46"
   sodipodi:docname="Silver_medal_world.svg"
   inkscape:output_extension="org.inkscape.output.svg.inkscape">
  <metadata
     id="metadata7234">
    <rdf:RDF>
      <cc:Work
         rdf:about="">
        <dc:format>image/svg+xml</dc:format>
        <dc:type
           rdf:resource="http://purl.org/dc/dcmitype/StillImage" />
      </cc:Work>
    </rdf:RDF>
  </metadata>
  <defs
     id="defs7232">
    <inkscape:perspective
       sodipodi:type="inkscape:persp3d"
       inkscape:vp_x="0 : 150 : 1"
       inkscape:vp_y="0 : 1000 : 0"
       inkscape:vp_z="300 : 150 : 1"
       inkscape:persp3d-origin="150 : 100 : 1"
       id="perspective7236" />
  </defs>
  <sodipodi:namedview
     inkscape:window-height="712"
     inkscape:window-width="1024"
     inkscape:pageshadow="2"
     inkscape:pageopacity="0.0"
     guidetolerance="10.0"
     gridtolerance="10.0"
     objecttolerance="10.0"
     borderopacity="1.0"
     bordercolor="#666666"
     pagecolor="#ffffff"
     id="base"
     showgrid="false"
     inkscape:zoom="1.54"
     inkscape:cx="150"
     inkscape:cy="162.24389"
     inkscape:window-x="-4"
     inkscape:window-y="-4"
     inkscape:current-layer="svg7227" />
  <path
     d="M 17.55401,2.5000003 C 17.55401,12.148425 9.6948119,19.970019 -1.40669e-07,19.970019 C -9.6948119,19.970019 -17.55401,12.148425 -17.55401,2.5000003 C -17.55401,-7.1484248 -9.6948119,-14.970019 1.071029e-07,-14.970019 C 9.6948119,-14.970019 17.55401,-7.1484248 17.55401,2.5000003 z"
     style="fill:#cccccc;stroke:#999999;stroke-width:0.89197886"
     id="path7229" />
  <path
     sodipodi:type="arc"
     style="fill:#999999;fill-opacity:1;fill-rule:evenodd;stroke:#ffffff;stroke-width:0;stroke-linecap:butt;stroke-linejoin:miter;stroke-miterlimit:4;stroke-opacity:1"
     id="path2739"
     sodipodi:cx="372.90503"
     sodipodi:cy="376.39664"
     sodipodi:rx="364.52515"
     sodipodi:ry="359.63687"
     d="M 737.43018,376.39664 A 364.52515,359.63687 0 1 1 8.3798828,376.39664 A 364.52515,359.63687 0 1 1 737.43018,376.39664 z"
     transform="matrix(3.2274355e-2,0,0,3.2713058e-2,-12.03527,-9.8130851)" />
  <path
     style="fill:#e8e8e8;fill-opacity:1;fill-rule:evenodd;stroke:#666666;stroke-width:0.10081945000000000;stroke-opacity:1"
     d="M -0.47316514,-8.7172272 C -1.1323252,-8.6243439 -1.7970983,-8.5628968 -2.4416123,-8.3861969 C -3.2018569,-8.2237187 -3.9525257,-7.9941866 -4.6599744,-7.6670818 C -5.4551853,-7.2756524 -6.2223157,-6.8210851 -6.9387133,-6.294412 C -7.1721151,-6.1893614 -6.9740854,-6.1418 -7.0005885,-5.9716535 C -7.0658999,-5.82293 -7.2035544,-5.7109564 -7.3205908,-5.5989984 C -7.4502481,-5.5877218 -7.5603292,-5.5106101 -7.6512786,-5.4477976 C -7.6952479,-5.2796695 -7.7902564,-5.0434695 -8.0017808,-5.0814915 C -8.1160472,-5.1692142 -7.9556218,-5.3256357 -7.8622197,-5.3749409 C -7.6918401,-5.4226671 -7.7711196,-5.5631968 -7.8696165,-5.4809799 C -8.0056734,-5.3610457 -8.1527065,-5.2158342 -8.2535969,-5.0814915 C -8.1643014,-5.0290862 -8.01424,-5.072135 -8.0611343,-4.8540671 C -8.0479842,-4.701304 -8.1579866,-4.5683914 -8.2374541,-4.4486155 C -8.3496343,-4.5260366 -8.2752181,-4.6998121 -8.3795037,-4.7881274 C -8.3699201,-5.0133294 -8.3668474,-4.9770981 -8.5198573,-4.8166563 C -8.7927169,-4.4835964 -9.0698014,-4.1490609 -9.3286518,-3.8025555 C -9.0878758,-3.920877 -8.8733691,-4.0802132 -8.6539166,-4.2343614 C -8.6095203,-4.029906 -8.5389801,-4.0910736 -8.4155037,-4.1780988 C -8.2656798,-4.2438521 -8.1501195,-4.0448599 -8.0695777,-3.9475893 C -8.0401567,-3.8347425 -8.2901302,-3.7507319 -8.1018616,-3.7069659 C -8.098293,-3.8759857 -7.9538095,-4.0035156 -7.8920161,-4.1552515 C -7.795835,-4.24286 -7.556269,-4.3432998 -7.7021372,-4.4950672 C -7.858599,-4.6412262 -7.8730667,-4.7149917 -7.6404572,-4.6636808 C -7.4934371,-4.6741121 -7.3262819,-4.6059206 -7.2721653,-4.4650975 C -7.3526499,-4.2875554 -7.1602009,-4.1050515 -6.9886585,-4.1348331 C -6.7900061,-4.2181846 -6.6953889,-4.466105 -6.5578675,-4.6316239 C -6.3853367,-4.8969898 -6.1119083,-5.0963608 -5.9097812,-5.3221159 C -6.0521558,-5.2768841 -6.1290386,-5.4702993 -6.0057111,-5.5460887 C -5.8026869,-5.7189109 -5.5658814,-5.8547638 -5.4158378,-6.0835441 C -5.7618012,-5.975731 -6.083056,-5.8175792 -6.430734,-5.7165416 C -6.6125814,-5.6986438 -6.7715691,-5.609669 -6.933183,-5.5297775 C -7.0467948,-5.6287751 -7.0051245,-5.7871648 -6.8741124,-5.8426213 C -6.5597291,-6.0655653 -6.2644057,-6.3120266 -5.9773138,-6.5699219 C -5.661015,-6.8175343 -5.3356449,-7.1136194 -4.9283494,-7.158113 C -4.7821905,-7.0786496 -4.634582,-7.0018164 -4.4892883,-6.9207846 C -4.5985467,-6.7097874 -4.3389156,-6.8292066 -4.2213667,-6.8027303 C -4.0516317,-6.8135228 -3.8829963,-6.7851143 -3.7144735,-6.7691585 C -3.6399202,-6.605701 -3.7973223,-6.5291204 -3.9339772,-6.5710187 C -4.1043983,-6.54862 -4.2220675,-6.4251493 -4.3084974,-6.2813163 C -4.4535633,-6.142925 -4.5927559,-6.334657 -4.7507886,-6.3109823 C -4.8939133,-6.1340853 -5.037039,-5.9571869 -5.1801645,-5.7802905 C -4.8928756,-5.8410149 -4.6782419,-6.0841264 -4.3924361,-6.1593559 C -4.4242785,-6.0882522 -4.6228155,-5.8543987 -4.5393331,-5.9074925 C -4.2144359,-6.1277115 -3.9099951,-6.37873 -3.5691956,-6.5746813 C -3.4142315,-6.7032343 -3.2592695,-6.8317867 -3.1043063,-6.9603391 C -3.2973918,-7.0319283 -3.4939298,-6.8752023 -3.6850477,-6.8392912 C -3.7787455,-6.8065091 -3.9481511,-6.8250944 -3.9824307,-6.9043034 C -3.9412708,-7.1454252 -3.6565963,-7.1676809 -3.4689718,-7.2331388 C -3.3313186,-7.2752152 -3.1449982,-7.2840502 -3.3916331,-7.306443 C -3.5036102,-7.2885223 -3.7278412,-7.3325721 -3.5885668,-7.4778465 C -3.4918476,-7.5967826 -3.3657503,-7.663279 -3.2237561,-7.708583 C -3.163852,-7.5096259 -2.9699126,-7.6382216 -2.8241271,-7.6279144 C -2.6592425,-7.626589 -2.5042051,-7.6760972 -2.3760111,-7.7762537 C -2.1009284,-7.8424985 -2.3670761,-7.8253198 -2.469082,-7.9172535 C -2.5817837,-8.0594828 -2.3516033,-8.1328013 -2.2381081,-8.1561045 C -1.7782158,-8.3059806 -1.3028426,-8.4262397 -0.82239291,-8.4779172 C -0.34293294,-8.5193807 0.13787896,-8.5408727 0.6180345,-8.5721922 C 0.847348,-8.6961823 0.7176514,-8.7204346 0.52470662,-8.7120714 C 0.19176587,-8.7426863 -0.13971562,-8.7274308 -0.47316514,-8.7172272 z M 2.8230253,-7.9557995 C 2.9476806,-7.7687946 3.1513097,-7.5934347 3.1426367,-7.3492936 C 3.0309475,-7.2245599 3.346658,-7.2951405 3.423509,-7.2141486 C 3.4989327,-7.1254062 3.6292,-7.0327358 3.6236674,-6.910896 C 3.5598754,-6.792362 3.3175742,-6.8323537 3.5042176,-6.6966418 C 3.5578186,-6.5694686 3.4352841,-6.4520466 3.365396,-6.3670194 C 3.1773584,-6.300225 2.9875529,-6.447782 2.8014328,-6.3503724 C 2.5935281,-6.3030869 2.7046941,-6.3216255 2.7847876,-6.1978875 C 2.8077806,-6.0836611 2.7426511,-5.9476122 2.8456261,-5.8297332 C 2.9042303,-5.5944768 2.9674341,-5.3602181 3.0231869,-5.1243422 C 2.8664643,-5.0929086 3.0391653,-4.8117851 2.8230253,-4.8936063 C 2.6719457,-5.1097718 2.6511839,-4.9268912 2.7653231,-4.7830789 C 2.8403423,-4.6107603 2.9727293,-4.4760541 3.0780697,-4.3233593 C 2.8690969,-4.3137121 2.659088,-4.2717477 2.4517623,-4.3200627 C 2.6407215,-4.2789322 2.5368311,-4.0850711 2.4246424,-4.0144923 C 2.2685307,-3.8958998 2.0970732,-3.7547392 1.9062151,-3.7086628 C 1.687975,-3.7698331 1.7454718,-3.6532796 1.8317171,-3.5210053 C 1.9032388,-3.3525215 1.6745693,-3.3757192 1.5736386,-3.4136013 C 1.1473194,-3.577894 0.76506664,-3.8808104 0.3184707,-3.974554 C 0.029829592,-3.9077716 -0.2973691,-3.8555872 -0.49985679,-3.6169694 C -0.60748098,-3.3667974 -0.82684393,-3.18232 -1.0187495,-3.0004745 C -1.2378906,-2.8183155 -1.527445,-2.6856637 -1.6579889,-2.421438 C -1.6726887,-2.2867693 -1.720849,-2.0992101 -1.6127862,-1.9995207 C -1.480134,-2.0079139 -1.3123968,-2.1115296 -1.199558,-2.0390756 C -1.1572779,-1.9017666 -1.1929232,-1.7492676 -1.0833362,-1.6369361 C -1.0459035,-1.4620712 -1.2469701,-1.3109261 -1.3997174,-1.4029047 C -1.4924643,-1.472748 -1.2749043,-1.629074 -1.3270461,-1.6890465 C -1.4604568,-1.6438778 -1.587655,-1.5616284 -1.5840997,-1.4005448 C -1.6078182,-1.2297575 -1.6843554,-1.0383248 -1.8800195,-1.0308349 C -2.1455882,-1.0061382 -2.2859929,-0.74993691 -2.5361022,-0.6810314 C -2.4898624,-0.55987656 -2.7061913,-0.53714253 -2.7814674,-0.47996179 C -2.9145729,-0.45494776 -3.047885,-0.44081276 -3.1817884,-0.47007275 C -3.2138138,-0.30159276 -3.5216567,-0.4840353 -3.4516846,-0.29318279 C -3.3483094,-0.075210458 -3.2249302,0.17666596 -3.3501994,0.41431792 C -3.4035369,0.54738585 -3.4914569,0.66972698 -3.6497236,0.62862293 C -3.8911363,0.59710091 -4.1201489,0.47522759 -4.356924,0.41001943 C -4.5648831,0.51255885 -4.5043492,0.80758061 -4.6432748,0.97305882 C -4.7506546,1.1198691 -4.7570464,1.3069965 -4.8153561,1.4746975 C -4.7172612,1.5917593 -4.477389,1.6338443 -4.5228936,1.8338521 C -4.550118,1.9894849 -4.6197074,2.1482189 -4.775307,2.2099665 C -4.9646103,2.3409531 -5.1701759,2.4777953 -5.307641,2.6618061 C -5.382342,2.8430325 -5.4968694,3.0295944 -5.6967074,3.0700694 C -5.9068681,3.1369802 -6.1113319,3.2141665 -6.2657105,3.3817375 C -6.5075666,3.6105773 -6.7264515,3.8755258 -6.8940542,4.1636726 C -6.9616075,4.3583945 -6.9633657,4.5618976 -6.9590098,4.7643389 C -7.089017,5.1232767 -7.2979183,5.496805 -7.2190567,5.8871869 C -7.0576223,6.1562148 -6.8172601,6.4054893 -6.813733,6.7387757 C -6.5307103,7.0486172 -6.2476874,7.3584566 -5.9646645,7.6682878 C -5.5528023,7.7288342 -5.1602198,7.8967375 -4.7475643,7.9394458 C -4.4572047,7.9572458 -4.1575758,7.9147893 -3.8725682,7.9599599 C -3.5976606,7.9985908 -3.5434563,8.3749797 -3.2630951,8.4044021 C -3.0854972,8.4566739 -2.9033225,8.4921737 -2.723356,8.5351895 C -2.8426609,8.6631317 -2.5743089,8.6597436 -2.6265013,8.8055064 C -2.6649505,9.0230396 -2.7672901,9.2490332 -2.7737891,9.4604415 C -2.5730385,9.8286116 -2.2074948,10.080184 -2.071987,10.488028 C -1.9756921,10.736717 -1.8891342,10.999452 -1.8000395,11.25458 C -1.9424659,11.463698 -2.2076517,11.688489 -2.0888035,11.968489 C -1.8343494,12.317659 -1.6253374,12.705361 -1.341138,13.02932 C -1.1420972,13.219785 -0.96416082,13.446972 -0.7547546,13.617548 C -0.30671077,13.758001 0.1615613,13.609845 0.61674657,13.58593 C 0.88807072,13.578862 1.1359788,13.440631 1.3702087,13.314073 C 1.5737738,13.197359 1.7590271,13.054288 1.9126186,12.876341 C 2.0578881,12.79894 2.2847217,12.747725 2.2564759,12.533511 C 2.2516946,12.391894 2.2583603,12.248957 2.3871942,12.164323 C 2.7256097,11.9487 3.0584163,11.727554 3.3815396,11.488629 C 3.3855458,11.245167 3.376748,11.004061 3.2738442,10.77971 C 3.186473,10.626892 3.3328519,10.46333 3.2488698,10.304848 C 3.2488553,10.16319 3.2985771,10.014102 3.3072841,9.8734572 C 3.8069589,9.2987549 4.3193428,8.733092 4.8111702,8.1527561 C 5.0375239,7.7406744 5.2580788,7.3171343 5.3734544,6.8574165 C 5.2783143,6.7242803 5.1019837,6.9248206 4.981313,6.952054 C 4.6985986,7.0907796 4.4228699,7.2414805 4.1111553,7.2925191 C 3.8772092,6.9934795 3.6064124,6.7292958 3.333114,6.4684722 C 3.2365322,6.5830335 3.0286018,6.4746952 3.0748436,6.3267446 C 2.9743888,6.0334553 2.679019,5.8625365 2.6131784,5.5521305 C 2.5732039,5.3358419 2.3680867,5.236742 2.2923936,5.0414443 C 2.1512903,4.8014228 2.0318632,4.5326126 1.9449017,4.2764867 C 1.9678018,4.0944832 2.1525556,4.125729 2.2638702,4.2048845 C 2.4939381,4.44194 2.7197913,4.7165501 2.9284255,4.9756873 C 3.103882,5.4338479 3.5194612,5.7210029 3.7762631,6.1200742 C 3.8749078,6.3289623 3.9448114,6.5530622 4.0788723,6.7420503 C 4.417359,6.6765203 4.6720484,6.4049103 4.949129,6.2259337 C 5.2700542,6.0092446 5.5008899,5.6899944 5.8060605,5.4532433 C 5.9686986,5.2922172 6.1241601,5.1260559 6.1965239,4.9014545 C 6.3133112,4.7007718 6.3328098,4.4653509 6.3904016,4.2435287 C 6.254577,4.1471946 6.0952517,4.1155494 5.9384218,4.0820094 C 5.8113774,4.0524952 5.814236,3.6982003 5.7086325,3.9248987 C 5.6049578,4.058327 5.5468861,4.2494792 5.3599362,4.278947 C 5.2710387,4.3326584 5.0461453,4.4289709 5.0370998,4.2605 C 5.0409842,4.0326034 4.9859611,4.1035864 4.844831,4.135208 C 4.7370138,4.0667048 4.6983747,3.8970316 4.5773397,3.8229351 C 4.4681644,3.6985636 4.236211,3.5417017 4.3565102,3.3568447 C 4.4545038,3.3022983 4.5239543,3.0783182 4.5792695,3.1030335 C 4.7471914,3.3194264 4.9243362,3.5562271 5.2140733,3.59212 C 5.4300575,3.6760577 5.6369622,3.5638432 5.8207036,3.454186 C 5.9241894,3.413842 6.1865971,3.211343 6.0304349,3.4331002 C 5.8759032,3.5997393 6.1279393,3.6234691 6.2432725,3.57522 C 6.6209814,3.5382248 6.952337,3.2998586 7.2943511,3.1755522 C 7.6103887,3.3732989 7.9252519,3.5995814 8.3016089,3.6469079 C 8.5761157,3.70809 8.6148632,4.0453135 8.7697344,4.2434462 C 8.966672,4.5873901 9.184426,4.9176466 9.4057219,5.2455729 C 9.5587582,5.2773409 9.5187332,5.028695 9.6704537,5.0148393 C 9.7603223,5.0359664 9.8095105,5.232484 9.8512405,5.3312774 C 9.9700804,5.1324698 9.7427092,4.9472702 9.683559,4.762052 C 9.5458995,4.4872035 9.5469274,4.163492 9.4896628,3.8644576 C 9.678754,3.2781454 9.7435956,2.6581817 9.9229325,2.0707208 C 9.9709607,1.910572 10.055096,1.7594903 10.145026,1.62303 C 10.3336,1.5336257 10.478887,1.7503292 10.599154,1.8654695 C 10.711255,1.9455155 10.749175,2.2203154 10.790911,1.9464092 C 10.833146,1.8775016 10.875066,1.5000981 10.91984,1.6889541 C 11.030094,2.0345028 11.12773,2.3847873 11.245908,2.7272638 C 11.185158,2.5314015 11.189023,2.3215154 11.220078,2.1240546 C 11.265175,1.9132077 11.518701,2.21598 11.482386,2.0385679 C 11.4657,1.6873132 11.424426,1.330944 11.330981,0.99506622 C 11.15201,0.7447735 10.941431,0.48803667 10.948061,0.15966923 C 10.93454,-0.023888891 10.918157,-0.20723773 10.906926,-0.39096479 C 11.044624,-0.12801336 10.97506,-0.36912911 10.938065,-0.52236987 C 10.854692,-0.8851449 10.769848,-1.2475895 10.687395,-1.610566 C 10.852723,-1.6787778 10.678031,-1.8220045 10.632511,-1.9171152 C 10.380379,-2.3026773 10.142393,-2.7079419 9.8448968,-3.0555494 C 9.6962093,-3.1700781 9.5170603,-3.2516419 9.4565407,-3.4472059 C 9.385696,-3.5791377 9.1844116,-3.5149506 9.1183853,-3.6659702 C 9.0297829,-3.778536 8.8598249,-3.9031044 8.9299266,-4.0639697 C 8.9768289,-4.1900207 8.7665486,-4.4761292 8.9946258,-4.2962991 C 9.1515919,-4.2119589 9.2894888,-4.1100081 9.4250926,-3.9937364 C 9.3807217,-4.1814795 9.1530956,-4.254146 9.0211956,-4.3799553 C 8.5044619,-4.7839018 8.1448037,-5.3526582 7.6431805,-5.7776277 C 7.5090535,-5.9193329 7.3536436,-6.0438699 7.2047477,-6.1607855 C 7.1670446,-6.3187438 7.0642801,-6.3654431 6.9006493,-6.4133875 C 6.7725347,-6.466059 6.6314005,-6.4950201 6.555277,-6.6142286 C 6.3538172,-6.7231392 6.4060715,-6.6646638 6.485036,-6.5059278 C 6.4482246,-6.3165961 6.2538804,-6.4647527 6.1385864,-6.4955718 C 5.6080796,-6.8431563 5.1146195,-7.2657134 4.5860807,-7.6140311 C 4.3873381,-7.6297189 4.2068155,-7.7328466 4.0304457,-7.8140622 C 4.0418668,-7.9831993 3.9423903,-7.9791116 3.7620999,-8.0228009 C 3.2756502,-8.1455734 2.7915545,-8.2934039 2.3032915,-8.3993671 C 2.0604619,-8.363532 1.8207479,-8.4294619 1.5897781,-8.4996765 C 2.0008629,-8.3183828 2.4119457,-8.1370904 2.8230253,-7.9557995 z M -2.5619321,-8.2821252 C -2.4146915,-8.244192 -2.4616104,-8.0390463 -2.5942172,-8.0349088 C -2.7249869,-7.9972308 -2.825406,-8.1614318 -2.7062015,-8.2436057 C -2.6754666,-8.2988278 -2.6126054,-8.2755025 -2.5619321,-8.2821252 z M -2.8266644,-7.9623927 C -2.7513434,-7.8520116 -2.8574034,-7.6935065 -2.9784003,-7.72836 C -3.1179891,-7.7944829 -3.0619731,-7.9974799 -2.9074587,-7.9594759 C -2.8805256,-7.9603295 -2.8536298,-7.9629772 -2.8266644,-7.9623927 z M -2.8589484,-7.3328128 C -3.1269069,-7.2861645 -2.9326401,-7.2841235 -2.7717818,-7.2668881 C -2.5996053,-7.2675519 -2.5809405,-7.0871402 -2.6781601,-6.9867087 C -2.6365137,-6.8459808 -2.4140104,-6.9285761 -2.2986307,-6.8795444 C -2.1253951,-6.8669603 -1.9297815,-6.8190424 -1.8129447,-6.6900494 C -1.7737008,-6.5279479 -1.9436248,-6.4693349 -2.0662739,-6.5289311 C -2.226949,-6.5871634 -2.4029876,-6.5821572 -2.5386543,-6.4642998 C -2.6769795,-6.4115044 -2.6494911,-6.2137629 -2.7897577,-6.1529628 C -3.0136476,-5.9826213 -3.2598565,-5.8211694 -3.5019197,-5.6876256 C -3.6746194,-5.6655778 -3.725219,-5.5870625 -3.7902091,-5.4527849 C -3.9826041,-5.3921927 -4.2168021,-5.4398228 -4.3723662,-5.2739186 C -4.6673672,-5.0767766 -4.889059,-4.7945683 -5.1381957,-4.5442069 C -5.2457066,-4.3362315 -5.1438511,-4.2886255 -4.9711716,-4.4051804 C -4.7225996,-4.4966942 -4.479423,-4.6228222 -4.2278127,-4.6946825 C -3.7442295,-4.6869566 -3.2452843,-4.6043733 -2.772772,-4.7267556 C -2.4967365,-4.8996037 -2.2513982,-5.1207663 -1.9420861,-5.2298208 C -1.8532175,-5.3452218 -1.7576594,-5.4561809 -1.6318081,-5.5237008 C -1.5430736,-5.651587 -1.4417044,-5.76786 -1.2803254,-5.7856246 C -1.139092,-5.806531 -1.0326227,-5.9098139 -1.1285244,-6.0439888 C -1.0137123,-6.2026714 -1.1622976,-6.2813346 -1.2947785,-6.3439593 C -1.3855336,-6.4416578 -1.6769818,-6.4619922 -1.5842999,-6.6296917 C -1.5053426,-6.725917 -1.2979375,-6.8091933 -1.4707273,-6.9462569 C -1.6024766,-7.0580246 -1.78238,-7.0852591 -1.9420861,-7.1416317 C -2.0328061,-7.03105 -2.1995948,-6.8974303 -2.3294886,-7.0229671 C -2.4436288,-7.143889 -2.2723787,-7.256604 -2.2261812,-7.3295163 C -2.342885,-7.243193 -2.5035312,-7.1744073 -2.6202597,-7.3030275 C -2.6889677,-7.3609172 -2.7775702,-7.3707766 -2.8589484,-7.3328128 z M -7.4432682,-5.8791773 C -7.5655304,-5.8050399 -7.714894,-5.6145309 -7.4981515,-5.7671056 C -7.4306581,-5.8455719 -7.2450974,-6.0595609 -7.4311134,-5.8891066 L -7.4432682,-5.8791773 z M -0.21812595,-5.3287082 C -0.32452309,-5.1543888 -0.095759648,-5.1311502 -0.04359824,-5.3047235 C 0.11622038,-5.458845 -0.16067761,-5.32444 -0.21812595,-5.3287082 z M 1.8512817,-5.1078608 C 1.7871811,-4.9083709 1.8760322,-4.7036083 1.9158488,-4.5079474 C 2.1058772,-4.3488088 2.0121984,-4.4641246 1.9280584,-4.608846 C 1.8742179,-4.7915175 1.937785,-4.9917083 1.9061614,-5.1803779 C 1.8878672,-5.1562055 1.8695739,-5.1320335 1.8512817,-5.1078608 z M -3.3335233,-3.9838479 C -3.3969735,-3.8705497 -3.5154809,-3.6195099 -3.2819593,-3.6564266 C -3.1732,-3.6479469 -2.93599,-3.6524255 -2.942887,-3.7827782 C -3.0599022,-3.8711294 -3.2616748,-3.8164031 -3.314153,-3.9871443 L -3.3335233,-3.9838479 z M -7.5336646,-3.6937801 C -7.6215983,-3.6056394 -7.5429278,-3.4558252 -7.5917743,-3.337788 C -7.4773937,-3.4372608 -7.4090331,-3.6007107 -7.38193,-3.7564085 C -7.4325078,-3.7355326 -7.4830857,-3.7146565 -7.5336646,-3.6937801 z M 1.2701677,-3.3872316 C 1.3902378,-3.3641875 1.6030011,-3.3141928 1.5330862,-3.1447522 C 1.5141872,-2.9941553 1.310908,-3.0702828 1.3399969,-2.9333391 C 1.2697848,-2.7772512 1.0974449,-2.9320116 0.99252873,-2.9653148 C 1.1072211,-3.0918299 0.96263169,-3.2002263 1.0151233,-3.3213068 C 1.0842085,-3.3921454 1.1815798,-3.3709219 1.2701677,-3.3872316 z M 0.15637137,-3.2059395 C 0.30640766,-3.1678359 0.28828883,-2.9918304 0.18940259,-2.9063532 C 0.13758897,-2.7562628 -0.14166301,-2.7833802 -0.088435544,-2.5962081 C -0.06712268,-2.4311946 -0.077012336,-2.1731992 -0.28433907,-2.1517323 C -0.45936008,-2.1008042 -0.64481667,-2.3124885 -0.53721726,-2.4769251 C -0.46585549,-2.6388376 -0.34602378,-2.7587603 -0.20843857,-2.8631318 C -0.15984169,-3.0167302 -0.077232152,-3.1356345 0.077312944,-3.1889665 C 0.099370912,-3.2093824 0.12922048,-3.2037397 0.15637137,-3.2059395 z M 0.83110432,-2.5137321 C 0.93392042,-2.4894236 1.0587821,-2.3941369 1.092609,-2.2895894 C 1.0977618,-2.1364193 0.89843406,-2.0828251 0.80527852,-2.1939983 C 0.70438814,-2.2869777 0.72749152,-2.4094496 0.81173884,-2.5038434 L 0.818194,-2.5137321 L 0.83110432,-2.5137321 z M 0.69228587,-2.3324397 C 0.67868102,-2.1749686 0.62160729,-2.0274316 0.48567122,-1.9401889 C 0.3136203,-1.987146 0.41955201,-2.1715455 0.51184996,-2.2452673 C 0.54114638,-2.2868964 0.69322706,-2.4322223 0.69228587,-2.3324397 z M -2.8298926,-2.1874058 C -3.0625402,-2.2098544 -2.9743907,-2.0639006 -3.0421029,-1.9379373 C -3.1462511,-1.7449793 -3.3669835,-1.7004899 -3.5492009,-1.6230789 C -3.6667938,-1.5538963 -3.7284927,-1.4106177 -3.790761,-1.2981421 C -3.6915163,-1.2172105 -3.5006023,-1.3044999 -3.4196468,-1.3930252 C -3.3496467,-1.519301 -3.2032763,-1.7058784 -3.0541191,-1.5729732 C -2.8742478,-1.537358 -2.9343649,-1.3272095 -3.0591095,-1.25787 C -3.2059973,-1.187744 -3.2597526,-1.0337517 -3.3086484,-0.88952048 C -3.4430774,-0.75384623 -3.1137967,-0.82477115 -3.0297449,-0.7776587 C -2.8972027,-0.77215979 -2.672933,-0.6733944 -2.6587874,-0.88539785 C -2.67519,-1.1845944 -2.7475122,-1.4830129 -2.7677462,-1.7776091 C -2.6709505,-1.9147032 -2.791391,-2.0677427 -2.7344426,-2.2025381 C -2.6914339,-2.249439 -2.8241915,-2.181077 -2.8298926,-2.1874058 z M -0.050246384,-2.1643326 C 0.039603664,-2.1474212 0.28080167,-2.1469316 0.22946586,-2.0202619 C 0.07149556,-1.874565 0.13555283,-1.9091061 0.24351138,-1.7742719 C 0.33218186,-1.6484059 0.17019294,-1.4252613 0.040147528,-1.5479377 C -0.06017732,-1.7834178 -0.079756424,-1.5327667 -0.12234087,-1.4034969 C -0.19112367,-1.2730514 -0.23280099,-1.0520253 -0.41823901,-1.0715335 C -0.60920029,-1.1122019 -0.78653917,-1.0086335 -0.97679662,-1.0172455 C -1.0862082,-1.0809519 -1.3269264,-1.1812582 -1.1866363,-1.3369798 C -1.030536,-1.3200694 -0.96042188,-1.4479115 -0.8475056,-1.5204527 C -0.64845757,-1.5884359 -0.73307434,-1.8844249 -0.55064874,-1.9797435 C -0.41295414,-2.0873107 -0.26463613,-2.1598702 -0.08820644,-2.159143 C -0.075307472,-2.1574586 -0.063064856,-2.1649791 -0.050246384,-2.1643326 z M 1.6866313,-2.0984076 C 1.8162598,-2.0633818 1.8209069,-1.8736281 1.7060009,-1.8281172 C 1.5775252,-1.8003616 1.457776,-1.9519888 1.5691174,-2.0516013 C 1.5885882,-2.1000126 1.6457135,-2.0895441 1.6866313,-2.0984076 z M 3.6785512,0.16280063 C 3.9030525,0.31855657 4.1367727,0.4725738 4.3500561,0.64075193 C 4.4845474,0.95792763 4.6458655,1.2699632 4.7649521,1.5900142 C 4.8130516,1.7903306 4.5776823,1.8542857 4.4278421,1.8585602 C 4.2852878,1.8403217 4.1293959,1.7663128 4.0143042,1.6955455 C 4.0038841,1.5310788 3.9375492,1.3377356 4.0562725,1.1978109 C 3.8637509,1.0436528 3.6528823,0.89581774 3.5089658,0.6948439 C 3.4483925,0.53603571 3.3653857,0.31585573 3.517133,0.18587594 C 3.5709622,0.17879508 3.6245488,0.1674146 3.6785512,0.16280063 z M 2.074041,0.28476208 C 2.1932029,0.36733178 2.17637,0.57016808 2.0417538,0.61768002 C 2.3411463,0.72293566 2.6242384,0.89217788 2.874681,1.0956336 C 2.8720928,1.2640157 2.7487254,1.3783655 2.594879,1.410728 C 2.2922275,1.4905913 1.9685169,1.3906421 1.6575753,1.4054761 C 1.4290059,1.459718 1.1941557,1.5600398 0.96024364,1.5538106 C 1.0457799,1.6952669 0.85366074,1.800826 0.74394263,1.7120245 C 0.62519039,1.5974745 0.92907002,1.4941703 0.75039779,1.4054761 C 0.65644038,1.2140556 0.82420334,1.0381956 0.87180021,0.85783292 C 0.97789497,0.68390934 1.0244134,0.38080547 1.279852,0.40013039 C 1.3907094,0.48964896 1.4968289,0.58128097 1.5897781,0.69019329 C 1.692716,0.63659658 1.984484,0.67004793 1.7848663,0.55056772 C 1.6576651,0.36447428 1.9272844,0.25768488 2.074041,0.28476208 z M -1.3997174,0.51549788 C -1.1696588,0.7582474 -0.9757316,1.0628129 -0.67553518,1.2238905 C -0.43291714,1.3733799 -0.51920886,1.7144115 -0.37159674,1.9319457 C -0.29632782,2.1043434 -0.23701052,2.2971943 -0.076073216,2.4075316 C 0.009932632,2.3263173 0.045302368,2.1854638 0.18784737,2.195598 C 0.1887741,2.079045 -0.021091352,2.0437856 -0.069617024,1.922987 C -0.12016954,1.7670414 0.047683192,1.7019573 0.15975323,1.6571056 C 0.25537319,1.6153663 0.41228776,1.4614735 0.46950803,1.6211115 C 0.56436741,1.8611877 0.62530598,2.1139586 0.75621311,2.3424062 C 0.7937325,2.5506442 0.94844169,2.2747968 1.0796925,2.4141281 C 1.2241446,2.445956 1.3405996,2.2901602 1.4888567,2.3713641 C 1.665207,2.4505629 1.8560795,2.317212 2.0256123,2.3218281 C 2.2051762,2.3964706 2.2224859,2.6057324 2.1848809,2.775873 C 2.1609952,3.0378142 2.0905695,3.3089299 1.9675014,3.5315416 C 1.7356915,3.6216817 1.4815471,3.5268945 1.251181,3.6250439 C 0.91055181,3.7193378 0.56295254,3.5838991 0.23754539,3.4921811 C 0.04332196,3.4263354 -0.16705537,3.2776593 -0.36616326,3.4013424 C -0.5358127,3.4538558 -0.42782216,3.7536032 -0.63458439,3.7523937 C -0.83398537,3.7840947 -1.0106741,3.6597831 -1.1763111,3.5658205 C -1.4681814,3.296743 -1.8766294,3.2051241 -2.1680683,2.9415214 C -2.2388501,2.8045244 -2.0933525,2.7329955 -2.0404429,2.6448142 C -2.0893659,2.5329547 -2.0718271,2.3887832 -2.1012845,2.2977196 C -2.3851412,2.2246498 -2.6991003,2.236652 -2.9945412,2.1965702 C -3.3385323,2.1836547 -3.6810515,2.1967879 -4.021171,2.2526098 C -4.1915131,2.2432042 -4.3739044,2.1912935 -4.495745,2.0779087 C -4.5634041,1.8939671 -4.3630122,1.7475036 -4.1987335,1.7977269 C -3.9428604,1.8487232 -3.6868647,1.7016199 -3.5794967,1.4636345 C -3.4376871,1.1695186 -3.0450839,1.15473 -2.9106028,0.8550073 C -2.7504077,0.67386736 -2.5010379,0.8918786 -2.3078073,0.78239083 C -2.1599506,0.75977888 -1.9416836,0.64704857 -1.8526777,0.82543741 C -1.7760817,0.9957267 -1.7202288,1.1768778 -1.5599994,1.2883493 C -1.3703994,1.478874 -1.0951887,1.6305986 -1.0510521,1.922987 C -1.0319034,2.0176079 -1.0116751,1.6919965 -1.037245,1.6099535 C -0.82991516,1.6720716 -0.88961017,1.6144984 -1.0475371,1.4912498 C -1.2676617,1.335134 -1.4050095,1.0908988 -1.5482222,0.8681942 C -1.5937716,0.72854737 -1.5323996,0.58297262 -1.4190819,0.49901787 L -1.3997174,0.51549788 z M -2.1357822,1.5702875 C -2.1648866,1.7999158 -2.0595803,1.3966742 -2.1357822,1.5702875 z M -1.4545951,2.1603139 C -1.663832,2.1000111 -1.3413011,2.3679678 -1.2963399,2.2209646 C -1.0966851,2.0488166 -1.3567429,2.1704182 -1.4545951,2.1603139 z M 11.520324,3.5183558 C 11.569442,3.666133 11.575522,3.8186678 11.565518,3.9732304 C 11.450381,3.9717722 11.212331,3.9601962 11.320161,4.1347528 C 11.355545,4.2489643 11.534051,4.2415432 11.523674,4.3991966 C 11.571486,4.6001446 11.566303,4.2126028 11.580365,4.1355681 C 11.594526,3.8634101 11.583807,3.577575 11.504326,3.3174419 C 11.427036,3.1712942 11.313339,2.9745846 11.426327,3.2504403 C 11.457658,3.3397454 11.488986,3.4290506 11.520324,3.5183558 z M -11.375452,3.7721658 C -11.281832,4.5892302 -11.146864,5.4042191 -10.895092,6.1875206 C -10.667252,6.932607 -10.366179,7.6559193 -10.000158,8.3407142 C -10.01852,8.1899525 -10.151019,8.0211348 -10.007541,7.8970698 C -9.8683985,7.7417642 -9.8315835,7.5199378 -9.9335463,7.3323708 C -10.119639,6.8248641 -10.432275,6.3768038 -10.660731,5.8881126 C -10.895149,5.458847 -11.05437,4.9875853 -11.134517,4.5007155 C -11.227382,4.03475 -11.329566,3.5706709 -11.414195,3.1030335 C -11.401279,3.3260756 -11.388368,3.5491238 -11.375452,3.7721658 z M 2.2225437,9.3526501 C 2.3127147,9.4955047 2.2752325,9.6149721 2.1579766,9.7218357 C 2.0440036,9.8182225 1.8672705,9.9529201 1.738285,9.8009385 C 1.6910059,9.6483243 1.7776681,9.4651897 1.939044,9.4255217 C 2.0151097,9.3800734 2.1515432,9.3130461 2.2225437,9.3526501 z M 1.3024538,10.423953 C 1.4174258,10.448922 1.6157989,10.503523 1.5455259,10.663014 C 1.4713685,10.775687 1.2846456,10.643592 1.2282004,10.536004 C 1.2323666,10.48916 1.2500623,10.425525 1.3024538,10.423953 z M 4.9795926,11.00735 C 4.7684279,11.251853 4.5175291,11.462763 4.2080075,11.564408 C 4.0293796,11.74998 4.1309357,12.04912 3.949735,12.233573 C 3.832891,12.401963 3.9291456,12.53453 4.1066589,12.409526 C 4.3816043,12.309187 4.5110553,12.006735 4.6832992,11.786164 C 4.8133715,11.531722 5.0055505,11.301975 5.0977566,11.032613 C 5.0890434,10.92589 5.031657,10.900908 4.9795926,11.00735 z M 2.3452238,11.050207 C 2.4585673,11.20672 2.3774242,11.400951 2.3452238,11.571007 C 2.2124167,11.491133 2.121256,11.39224 2.1547486,11.224896 C 2.1430715,11.091548 2.2426615,11.005932 2.3452238,11.050207 z"
     id="path2729" />
</svg>
